<?xml version="1.0" encoding="UTF-8" standalone="no"?>
<!DOCTYPE svg PUBLIC "-//W3C//DTD SVG 1.1//EN"
 "http://www.w3.org/Graphics/SVG/1.1/DTD/svg11.dtd">
<!-- Generated by graphviz version 2.47.0 (20210316.0004)
 -->
<!-- Title: dependencies Pages: 1 -->
<svg width="527pt" height="211pt"
 viewBox="0.00 0.00 527.00 211.00" xmlns="http://www.w3.org/2000/svg" xmlns:xlink="http://www.w3.org/1999/xlink">
<g id="graph0" class="graph" transform="scale(1 1) rotate(0) translate(4 207)">
<title>dependencies</title>
<polygon fill="white" stroke="transparent" points="-4,4 -4,-207 523,-207 523,4 -4,4"/>
<text text-anchor="start" x="238.51" y="-42.4" font-family="Times-12" font-weight="bold" font-size="14.00">Legend</text>
<polygon fill="#ffffb3" stroke="transparent" points="25.5,-10 25.5,-30 45.5,-30 45.5,-10 25.5,-10"/>
<text text-anchor="start" x="49.13" y="-15.4" font-family="Times-12" font-size="14.00"> &#160;Declarations</text>
<polygon fill="#8dd3c7" stroke="transparent" points="138.5,-10 138.5,-30 158.5,-30 158.5,-10 138.5,-10"/>
<text text-anchor="start" x="162.23" y="-15.4" font-family="Times-12" font-size="14.00"> &#160;Module</text>
<polygon fill="#80b1d3" stroke="transparent" points="224.5,-10 224.5,-30 244.5,-30 244.5,-10 224.5,-10"/>
<text text-anchor="start" x="248.28" y="-15.4" font-family="Times-12" font-size="14.00"> &#160;Bootstrap</text>
<polygon fill="#fdb462" stroke="transparent" points="321.5,-10 321.5,-30 341.5,-30 341.5,-10 321.5,-10"/>
<text text-anchor="start" x="345.17" y="-15.4" font-family="Times-12" font-size="14.00"> &#160;Providers</text>
<polygon fill="#fb8072" stroke="transparent" points="417.5,-10 417.5,-30 437.5,-30 437.5,-10 417.5,-10"/>
<text text-anchor="start" x="441.23" y="-15.4" font-family="Times-12" font-size="14.00"> &#160;Exports</text>
<g id="clust1" class="cluster">
<title>cluster_IntegrationModule</title>
<polygon fill="none" stroke="black" stroke-dasharray="1,5" points="8,-70 8,-195 511,-195 511,-70 8,-70"/>
</g>
<g id="clust3" class="cluster">
<title>cluster_IntegrationModule_imports</title>
<polygon fill="none" stroke="black" points="16,-78 16,-130 503,-130 503,-78 16,-78"/>
</g>
<!-- ImageKitModule -->
<g id="node1" class="node">
<title>ImageKitModule</title>
<polygon fill="#8dd3c7" stroke="black" points="495.42,-122 492.42,-126 471.42,-126 468.42,-122 382.58,-122 382.58,-86 495.42,-86 495.42,-122"/>
<text text-anchor="middle" x="439" y="-99.8" font-family="Times,serif" font-size="14.00">ImageKitModule</text>
</g>
<!-- IntegrationModule -->
<g id="node5" class="node">
<title>IntegrationModule</title>
<polygon fill="#8dd3c7" stroke="black" points="305.47,-187 302.47,-191 281.47,-191 278.47,-187 184.53,-187 184.53,-151 305.47,-151 305.47,-187"/>
<text text-anchor="middle" x="245" y="-164.8" font-family="Times,serif" font-size="14.00">IntegrationModule</text>
</g>
<!-- ImageKitModule&#45;&gt;IntegrationModule -->
<g id="edge1" class="edge">
<title>ImageKitModule&#45;&gt;IntegrationModule</title>
<path fill="none" stroke="black" d="M439,-122.11C439,-141.34 439,-169 439,-169 439,-169 315.58,-169 315.58,-169"/>
<polygon fill="black" stroke="black" points="315.58,-165.5 305.58,-169 315.58,-172.5 315.58,-165.5"/>
</g>
<!-- LangchainModule -->
<g id="node2" class="node">
<title>LangchainModule</title>
<polygon fill="#8dd3c7" stroke="black" points="364.14,-122 361.14,-126 340.14,-126 337.14,-122 245.86,-122 245.86,-86 364.14,-86 364.14,-122"/>
<text text-anchor="middle" x="305" y="-99.8" font-family="Times,serif" font-size="14.00">LangchainModule</text>
</g>
<!-- LangchainModule&#45;&gt;IntegrationModule -->
<g id="edge2" class="edge">
<title>LangchainModule&#45;&gt;IntegrationModule</title>
<path fill="none" stroke="black" d="M275.58,-122.11C275.58,-122.11 275.58,-140.99 275.58,-140.99"/>
<polygon fill="black" stroke="black" points="272.08,-140.99 275.58,-150.99 279.08,-140.99 272.08,-140.99"/>
</g>
<!-- MailModule -->
<g id="node3" class="node">
<title>MailModule</title>
<polygon fill="#8dd3c7" stroke="black" points="227.99,-122 224.99,-126 203.99,-126 200.99,-122 142.01,-122 142.01,-86 227.99,-86 227.99,-122"/>
<text text-anchor="middle" x="185" y="-99.8" font-family="Times,serif" font-size="14.00">MailModule</text>
</g>
<!-- MailModule&#45;&gt;IntegrationModule -->
<g id="edge3" class="edge">
<title>MailModule&#45;&gt;IntegrationModule</title>
<path fill="none" stroke="black" d="M206.25,-122.11C206.25,-122.11 206.25,-140.99 206.25,-140.99"/>
<polygon fill="black" stroke="black" points="202.75,-140.99 206.25,-150.99 209.75,-140.99 202.75,-140.99"/>
</g>
<!-- ResendModule -->
<g id="node4" class="node">
<title>ResendModule</title>
<polygon fill="#8dd3c7" stroke="black" points="124.26,-122 121.26,-126 100.26,-126 97.26,-122 23.74,-122 23.74,-86 124.26,-86 124.26,-122"/>
<text text-anchor="middle" x="74" y="-99.8" font-family="Times,serif" font-size="14.00">ResendModule</text>
</g>
<!-- ResendModule&#45;&gt;IntegrationModule -->
<g id="edge4" class="edge">
<title>ResendModule&#45;&gt;IntegrationModule</title>
<path fill="none" stroke="black" d="M74,-122.11C74,-141.34 74,-169 74,-169 74,-169 174.23,-169 174.23,-169"/>
<polygon fill="black" stroke="black" points="174.23,-172.5 184.23,-169 174.23,-165.5 174.23,-172.5"/>
</g>
</g>
</svg>
