<?xml version="1.0" encoding="UTF-8" standalone="no"?>
<!DOCTYPE svg PUBLIC "-//W3C//DTD SVG 1.1//EN"
 "http://www.w3.org/Graphics/SVG/1.1/DTD/svg11.dtd">
<!-- Generated by graphviz version 2.47.0 (20210316.0004)
 -->
<!-- Title: dependencies Pages: 1 -->
<svg width="610pt" height="211pt"
 viewBox="0.00 0.00 610.00 211.00" xmlns="http://www.w3.org/2000/svg" xmlns:xlink="http://www.w3.org/1999/xlink">
<g id="graph0" class="graph" transform="scale(1 1) rotate(0) translate(4 207)">
<title>dependencies</title>
<polygon fill="white" stroke="transparent" points="-4,4 -4,-207 606,-207 606,4 -4,4"/>
<text text-anchor="start" x="280.01" y="-42.4" font-family="Times-12" font-weight="bold" font-size="14.00">Legend</text>
<polygon fill="#ffffb3" stroke="transparent" points="67,-10 67,-30 87,-30 87,-10 67,-10"/>
<text text-anchor="start" x="90.63" y="-15.4" font-family="Times-12" font-size="14.00"> &#160;Declarations</text>
<polygon fill="#8dd3c7" stroke="transparent" points="180,-10 180,-30 200,-30 200,-10 180,-10"/>
<text text-anchor="start" x="203.73" y="-15.4" font-family="Times-12" font-size="14.00"> &#160;Module</text>
<polygon fill="#80b1d3" stroke="transparent" points="266,-10 266,-30 286,-30 286,-10 266,-10"/>
<text text-anchor="start" x="289.78" y="-15.4" font-family="Times-12" font-size="14.00"> &#160;Bootstrap</text>
<polygon fill="#fdb462" stroke="transparent" points="363,-10 363,-30 383,-30 383,-10 363,-10"/>
<text text-anchor="start" x="386.67" y="-15.4" font-family="Times-12" font-size="14.00"> &#160;Providers</text>
<polygon fill="#fb8072" stroke="transparent" points="459,-10 459,-30 479,-30 479,-10 459,-10"/>
<text text-anchor="start" x="482.73" y="-15.4" font-family="Times-12" font-size="14.00"> &#160;Exports</text>
<g id="clust1" class="cluster">
<title>cluster_ApiModule</title>
<polygon fill="none" stroke="black" stroke-dasharray="1,5" points="8,-70 8,-195 594,-195 594,-70 8,-70"/>
</g>
<g id="clust3" class="cluster">
<title>cluster_ApiModule_imports</title>
<polygon fill="none" stroke="black" points="16,-78 16,-130 586,-130 586,-78 16,-78"/>
</g>
<!-- AuthModule -->
<g id="node1" class="node">
<title>AuthModule</title>
<polygon fill="#8dd3c7" stroke="black" points="577.55,-122 574.55,-126 553.55,-126 550.55,-122 490.45,-122 490.45,-86 577.55,-86 577.55,-122"/>
<text text-anchor="middle" x="534" y="-99.8" font-family="Times,serif" font-size="14.00">AuthModule</text>
</g>
<!-- ApiModule -->
<g id="node6" class="node">
<title>ApiModule</title>
<polygon fill="#8dd3c7" stroke="black" points="342.05,-187 339.05,-191 318.05,-191 315.05,-187 261.95,-187 261.95,-151 342.05,-151 342.05,-187"/>
<text text-anchor="middle" x="302" y="-164.8" font-family="Times,serif" font-size="14.00">ApiModule</text>
</g>
<!-- AuthModule&#45;&gt;ApiModule -->
<g id="edge1" class="edge">
<title>AuthModule&#45;&gt;ApiModule</title>
<path fill="none" stroke="black" d="M534,-122.28C534,-143.32 534,-175 534,-175 534,-175 352.15,-175 352.15,-175"/>
<polygon fill="black" stroke="black" points="352.15,-171.5 342.15,-175 352.15,-178.5 352.15,-171.5"/>
</g>
<!-- DeckModule -->
<g id="node2" class="node">
<title>DeckModule</title>
<polygon fill="#8dd3c7" stroke="black" points="472.59,-122 469.59,-126 448.59,-126 445.59,-122 383.41,-122 383.41,-86 472.59,-86 472.59,-122"/>
<text text-anchor="middle" x="428" y="-99.8" font-family="Times,serif" font-size="14.00">DeckModule</text>
</g>
<!-- DeckModule&#45;&gt;ApiModule -->
<g id="edge2" class="edge">
<title>DeckModule&#45;&gt;ApiModule</title>
<path fill="none" stroke="black" d="M428,-122.02C428,-139.37 428,-163 428,-163 428,-163 352.21,-163 352.21,-163"/>
<polygon fill="black" stroke="black" points="352.21,-159.5 342.21,-163 352.21,-166.5 352.21,-159.5"/>
</g>
<!-- NotificationModule -->
<g id="node3" class="node">
<title>NotificationModule</title>
<polygon fill="#8dd3c7" stroke="black" points="365.7,-122 362.7,-126 341.7,-126 338.7,-122 238.3,-122 238.3,-86 365.7,-86 365.7,-122"/>
<text text-anchor="middle" x="302" y="-99.8" font-family="Times,serif" font-size="14.00">NotificationModule</text>
</g>
<!-- NotificationModule&#45;&gt;ApiModule -->
<g id="edge3" class="edge">
<title>NotificationModule&#45;&gt;ApiModule</title>
<path fill="none" stroke="black" d="M302,-122.11C302,-122.11 302,-140.99 302,-140.99"/>
<polygon fill="black" stroke="black" points="298.5,-140.99 302,-150.99 305.5,-140.99 298.5,-140.99"/>
</g>
<!-- StudyModule -->
<g id="node4" class="node">
<title>StudyModule</title>
<polygon fill="#8dd3c7" stroke="black" points="220.22,-122 217.22,-126 196.22,-126 193.22,-122 127.78,-122 127.78,-86 220.22,-86 220.22,-122"/>
<text text-anchor="middle" x="174" y="-99.8" font-family="Times,serif" font-size="14.00">StudyModule</text>
</g>
<!-- StudyModule&#45;&gt;ApiModule -->
<g id="edge4" class="edge">
<title>StudyModule&#45;&gt;ApiModule</title>
<path fill="none" stroke="black" d="M174,-122.02C174,-139.37 174,-163 174,-163 174,-163 251.85,-163 251.85,-163"/>
<polygon fill="black" stroke="black" points="251.85,-166.5 261.85,-163 251.85,-159.5 251.85,-166.5"/>
</g>
<!-- UserModule -->
<g id="node5" class="node">
<title>UserModule</title>
<polygon fill="#8dd3c7" stroke="black" points="109.98,-122 106.98,-126 85.98,-126 82.98,-122 24.02,-122 24.02,-86 109.98,-86 109.98,-122"/>
<text text-anchor="middle" x="67" y="-99.8" font-family="Times,serif" font-size="14.00">UserModule</text>
</g>
<!-- UserModule&#45;&gt;ApiModule -->
<g id="edge5" class="edge">
<title>UserModule&#45;&gt;ApiModule</title>
<path fill="none" stroke="black" d="M67,-122.28C67,-143.32 67,-175 67,-175 67,-175 251.87,-175 251.87,-175"/>
<polygon fill="black" stroke="black" points="251.87,-178.5 261.87,-175 251.87,-171.5 251.87,-178.5"/>
</g>
</g>
</svg>
