<?xml version="1.0" encoding="UTF-8" standalone="no"?>
<!DOCTYPE svg PUBLIC "-//W3C//DTD SVG 1.1//EN"
 "http://www.w3.org/Graphics/SVG/1.1/DTD/svg11.dtd">
<!-- Generated by graphviz version 2.47.0 (20210316.0004)
 -->
<!-- Title: dependencies Pages: 1 -->
<svg width="504pt" height="211pt"
 viewBox="0.00 0.00 504.00 211.00" xmlns="http://www.w3.org/2000/svg" xmlns:xlink="http://www.w3.org/1999/xlink">
<g id="graph0" class="graph" transform="scale(1 1) rotate(0) translate(4 207)">
<title>dependencies</title>
<polygon fill="white" stroke="transparent" points="-4,4 -4,-207 500,-207 500,4 -4,4"/>
<text text-anchor="start" x="227.01" y="-42.4" font-family="Times-12" font-weight="bold" font-size="14.00">Legend</text>
<polygon fill="#ffffb3" stroke="transparent" points="14,-10 14,-30 34,-30 34,-10 14,-10"/>
<text text-anchor="start" x="37.63" y="-15.4" font-family="Times-12" font-size="14.00"> &#160;Declarations</text>
<polygon fill="#8dd3c7" stroke="transparent" points="127,-10 127,-30 147,-30 147,-10 127,-10"/>
<text text-anchor="start" x="150.73" y="-15.4" font-family="Times-12" font-size="14.00"> &#160;Module</text>
<polygon fill="#80b1d3" stroke="transparent" points="213,-10 213,-30 233,-30 233,-10 213,-10"/>
<text text-anchor="start" x="236.78" y="-15.4" font-family="Times-12" font-size="14.00"> &#160;Bootstrap</text>
<polygon fill="#fdb462" stroke="transparent" points="310,-10 310,-30 330,-30 330,-10 310,-10"/>
<text text-anchor="start" x="333.67" y="-15.4" font-family="Times-12" font-size="14.00"> &#160;Providers</text>
<polygon fill="#fb8072" stroke="transparent" points="406,-10 406,-30 426,-30 426,-10 406,-10"/>
<text text-anchor="start" x="429.73" y="-15.4" font-family="Times-12" font-size="14.00"> &#160;Exports</text>
<g id="clust1" class="cluster">
<title>cluster_ApiModule</title>
<polygon fill="none" stroke="black" stroke-dasharray="1,5" points="27.5,-70 27.5,-195 468.5,-195 468.5,-70 27.5,-70"/>
</g>
<g id="clust3" class="cluster">
<title>cluster_ApiModule_imports</title>
<polygon fill="none" stroke="black" points="35.5,-78 35.5,-130 460.5,-130 460.5,-78 35.5,-78"/>
</g>
<!-- AuthModule -->
<g id="node1" class="node">
<title>AuthModule</title>
<polygon fill="#8dd3c7" stroke="black" points="452.05,-122 449.05,-126 428.05,-126 425.05,-122 364.95,-122 364.95,-86 452.05,-86 452.05,-122"/>
<text text-anchor="middle" x="408.5" y="-99.8" font-family="Times,serif" font-size="14.00">AuthModule</text>
</g>
<!-- ApiModule -->
<g id="node5" class="node">
<title>ApiModule</title>
<polygon fill="#8dd3c7" stroke="black" points="287.55,-187 284.55,-191 263.55,-191 260.55,-187 207.45,-187 207.45,-151 287.55,-151 287.55,-187"/>
<text text-anchor="middle" x="247.5" y="-164.8" font-family="Times,serif" font-size="14.00">ApiModule</text>
</g>
<!-- AuthModule&#45;&gt;ApiModule -->
<g id="edge1" class="edge">
<title>AuthModule&#45;&gt;ApiModule</title>
<path fill="none" stroke="black" d="M408.5,-122.11C408.5,-141.34 408.5,-169 408.5,-169 408.5,-169 297.71,-169 297.71,-169"/>
<polygon fill="black" stroke="black" points="297.71,-165.5 287.71,-169 297.71,-172.5 297.71,-165.5"/>
</g>
<!-- DeckModule -->
<g id="node2" class="node">
<title>DeckModule</title>
<polygon fill="#8dd3c7" stroke="black" points="347.09,-122 344.09,-126 323.09,-126 320.09,-122 257.91,-122 257.91,-86 347.09,-86 347.09,-122"/>
<text text-anchor="middle" x="302.5" y="-99.8" font-family="Times,serif" font-size="14.00">DeckModule</text>
</g>
<!-- DeckModule&#45;&gt;ApiModule -->
<g id="edge2" class="edge">
<title>DeckModule&#45;&gt;ApiModule</title>
<path fill="none" stroke="black" d="M272.87,-122.11C272.87,-122.11 272.87,-140.99 272.87,-140.99"/>
<polygon fill="black" stroke="black" points="269.37,-140.99 272.87,-150.99 276.37,-140.99 269.37,-140.99"/>
</g>
<!-- StudyModule -->
<g id="node3" class="node">
<title>StudyModule</title>
<polygon fill="#8dd3c7" stroke="black" points="239.72,-122 236.72,-126 215.72,-126 212.72,-122 147.28,-122 147.28,-86 239.72,-86 239.72,-122"/>
<text text-anchor="middle" x="193.5" y="-99.8" font-family="Times,serif" font-size="14.00">StudyModule</text>
</g>
<!-- StudyModule&#45;&gt;ApiModule -->
<g id="edge3" class="edge">
<title>StudyModule&#45;&gt;ApiModule</title>
<path fill="none" stroke="black" d="M223.42,-122.11C223.42,-122.11 223.42,-140.99 223.42,-140.99"/>
<polygon fill="black" stroke="black" points="219.92,-140.99 223.42,-150.99 226.92,-140.99 219.92,-140.99"/>
</g>
<!-- UserModule -->
<g id="node4" class="node">
<title>UserModule</title>
<polygon fill="#8dd3c7" stroke="black" points="129.48,-122 126.48,-126 105.48,-126 102.48,-122 43.52,-122 43.52,-86 129.48,-86 129.48,-122"/>
<text text-anchor="middle" x="86.5" y="-99.8" font-family="Times,serif" font-size="14.00">UserModule</text>
</g>
<!-- UserModule&#45;&gt;ApiModule -->
<g id="edge4" class="edge">
<title>UserModule&#45;&gt;ApiModule</title>
<path fill="none" stroke="black" d="M86.5,-122.11C86.5,-141.34 86.5,-169 86.5,-169 86.5,-169 197.29,-169 197.29,-169"/>
<polygon fill="black" stroke="black" points="197.29,-172.5 207.29,-169 197.29,-165.5 197.29,-172.5"/>
</g>
</g>
</svg>
