<?xml version="1.0" encoding="UTF-8" standalone="no"?>
<!DOCTYPE svg PUBLIC "-//W3C//DTD SVG 1.1//EN"
 "http://www.w3.org/Graphics/SVG/1.1/DTD/svg11.dtd">
<!-- Generated by graphviz version 2.47.0 (20210316.0004)
 -->
<!-- Title: dependencies Pages: 1 -->
<svg width="504pt" height="211pt"
 viewBox="0.00 0.00 504.00 211.00" xmlns="http://www.w3.org/2000/svg" xmlns:xlink="http://www.w3.org/1999/xlink">
<g id="graph0" class="graph" transform="scale(1 1) rotate(0) translate(4 207)">
<title>dependencies</title>
<polygon fill="white" stroke="transparent" points="-4,4 -4,-207 500,-207 500,4 -4,4"/>
<text text-anchor="start" x="227.01" y="-42.4" font-family="Times-12" font-weight="bold" font-size="14.00">Legend</text>
<polygon fill="#ffffb3" stroke="transparent" points="14,-10 14,-30 34,-30 34,-10 14,-10"/>
<text text-anchor="start" x="37.63" y="-15.4" font-family="Times-12" font-size="14.00"> &#160;Declarations</text>
<polygon fill="#8dd3c7" stroke="transparent" points="127,-10 127,-30 147,-30 147,-10 127,-10"/>
<text text-anchor="start" x="150.73" y="-15.4" font-family="Times-12" font-size="14.00"> &#160;Module</text>
<polygon fill="#80b1d3" stroke="transparent" points="213,-10 213,-30 233,-30 233,-10 213,-10"/>
<text text-anchor="start" x="236.78" y="-15.4" font-family="Times-12" font-size="14.00"> &#160;Bootstrap</text>
<polygon fill="#fdb462" stroke="transparent" points="310,-10 310,-30 330,-30 330,-10 310,-10"/>
<text text-anchor="start" x="333.67" y="-15.4" font-family="Times-12" font-size="14.00"> &#160;Providers</text>
<polygon fill="#fb8072" stroke="transparent" points="406,-10 406,-30 426,-30 426,-10 406,-10"/>
<text text-anchor="start" x="429.73" y="-15.4" font-family="Times-12" font-size="14.00"> &#160;Exports</text>
<g id="clust1" class="cluster">
<title>cluster_DeckModule</title>
<polygon fill="none" stroke="black" stroke-dasharray="1,5" points="96,-70 96,-195 400,-195 400,-70 96,-70"/>
</g>
<g id="clust3" class="cluster">
<title>cluster_DeckModule_imports</title>
<polygon fill="none" stroke="black" points="248,-78 248,-130 392,-130 392,-78 248,-78"/>
</g>
<g id="clust6" class="cluster">
<title>cluster_DeckModule_providers</title>
<polygon fill="none" stroke="black" points="104,-78 104,-130 240,-130 240,-78 104,-78"/>
</g>
<!-- NotificationModule -->
<g id="node1" class="node">
<title>NotificationModule</title>
<polygon fill="#8dd3c7" stroke="black" points="383.7,-122 380.7,-126 359.7,-126 356.7,-122 256.3,-122 256.3,-86 383.7,-86 383.7,-122"/>
<text text-anchor="middle" x="320" y="-99.8" font-family="Times,serif" font-size="14.00">NotificationModule</text>
</g>
<!-- DeckModule -->
<g id="node2" class="node">
<title>DeckModule</title>
<polygon fill="#8dd3c7" stroke="black" points="290.59,-187 287.59,-191 266.59,-191 263.59,-187 201.41,-187 201.41,-151 290.59,-151 290.59,-187"/>
<text text-anchor="middle" x="246" y="-164.8" font-family="Times,serif" font-size="14.00">DeckModule</text>
</g>
<!-- NotificationModule&#45;&gt;DeckModule -->
<g id="edge1" class="edge">
<title>NotificationModule&#45;&gt;DeckModule</title>
<path fill="none" stroke="black" d="M273.47,-122.11C273.47,-122.11 273.47,-140.99 273.47,-140.99"/>
<polygon fill="black" stroke="black" points="269.97,-140.99 273.47,-150.99 276.97,-140.99 269.97,-140.99"/>
</g>
<!-- DeckService -->
<g id="node3" class="node">
<title>DeckService</title>
<ellipse fill="#fdb462" stroke="black" cx="172" cy="-104" rx="60.23" ry="18"/>
<text text-anchor="middle" x="172" y="-99.8" font-family="Times,serif" font-size="14.00">DeckService</text>
</g>
<!-- DeckService&#45;&gt;DeckModule -->
<g id="edge2" class="edge">
<title>DeckService&#45;&gt;DeckModule</title>
<path fill="none" stroke="black" d="M216.91,-116.23C216.91,-116.23 216.91,-140.68 216.91,-140.68"/>
<polygon fill="black" stroke="black" points="213.41,-140.68 216.91,-150.68 220.41,-140.68 213.41,-140.68"/>
</g>
</g>
</svg>
