<?xml version="1.0" encoding="UTF-8" standalone="no"?>
<!DOCTYPE svg PUBLIC "-//W3C//DTD SVG 1.1//EN"
 "http://www.w3.org/Graphics/SVG/1.1/DTD/svg11.dtd">
<!-- Generated by graphviz version 2.47.0 (20210316.0004)
 -->
<!-- Title: dependencies Pages: 1 -->
<svg width="504pt" height="211pt"
 viewBox="0.00 0.00 504.00 211.00" xmlns="http://www.w3.org/2000/svg" xmlns:xlink="http://www.w3.org/1999/xlink">
<g id="graph0" class="graph" transform="scale(1 1) rotate(0) translate(4 207)">
<title>dependencies</title>
<polygon fill="white" stroke="transparent" points="-4,4 -4,-207 500,-207 500,4 -4,4"/>
<text text-anchor="start" x="227.01" y="-42.4" font-family="Times-12" font-weight="bold" font-size="14.00">Legend</text>
<polygon fill="#ffffb3" stroke="transparent" points="14,-10 14,-30 34,-30 34,-10 14,-10"/>
<text text-anchor="start" x="37.63" y="-15.4" font-family="Times-12" font-size="14.00"> &#160;Declarations</text>
<polygon fill="#8dd3c7" stroke="transparent" points="127,-10 127,-30 147,-30 147,-10 127,-10"/>
<text text-anchor="start" x="150.73" y="-15.4" font-family="Times-12" font-size="14.00"> &#160;Module</text>
<polygon fill="#80b1d3" stroke="transparent" points="213,-10 213,-30 233,-30 233,-10 213,-10"/>
<text text-anchor="start" x="236.78" y="-15.4" font-family="Times-12" font-size="14.00"> &#160;Bootstrap</text>
<polygon fill="#fdb462" stroke="transparent" points="310,-10 310,-30 330,-30 330,-10 310,-10"/>
<text text-anchor="start" x="333.67" y="-15.4" font-family="Times-12" font-size="14.00"> &#160;Providers</text>
<polygon fill="#fb8072" stroke="transparent" points="406,-10 406,-30 426,-30 426,-10 406,-10"/>
<text text-anchor="start" x="429.73" y="-15.4" font-family="Times-12" font-size="14.00"> &#160;Exports</text>
<g id="clust1" class="cluster">
<title>cluster_LangchainModule</title>
<polygon fill="none" stroke="black" stroke-dasharray="1,5" points="78,-70 78,-195 418,-195 418,-70 78,-70"/>
</g>
<g id="clust6" class="cluster">
<title>cluster_LangchainModule_providers</title>
<polygon fill="none" stroke="black" points="86,-78 86,-130 410,-130 410,-78 86,-78"/>
</g>
<!-- EmbeddingService -->
<g id="node1" class="node">
<title>EmbeddingService</title>
<ellipse fill="#fdb462" stroke="black" cx="317" cy="-104" rx="84.53" ry="18"/>
<text text-anchor="middle" x="317" y="-99.8" font-family="Times,serif" font-size="14.00">EmbeddingService</text>
</g>
<!-- LangchainModule -->
<g id="node3" class="node">
<title>LangchainModule</title>
<polygon fill="#8dd3c7" stroke="black" points="294.14,-187 291.14,-191 270.14,-191 267.14,-187 175.86,-187 175.86,-151 294.14,-151 294.14,-187"/>
<text text-anchor="middle" x="235" y="-164.8" font-family="Times,serif" font-size="14.00">LangchainModule</text>
</g>
<!-- EmbeddingService&#45;&gt;LangchainModule -->
<g id="edge1" class="edge">
<title>EmbeddingService&#45;&gt;LangchainModule</title>
<path fill="none" stroke="black" d="M263.4,-118.1C263.4,-118.1 263.4,-140.72 263.4,-140.72"/>
<polygon fill="black" stroke="black" points="259.9,-140.72 263.4,-150.72 266.9,-140.72 259.9,-140.72"/>
</g>
<!-- StoreService -->
<g id="node2" class="node">
<title>StoreService</title>
<ellipse fill="#fdb462" stroke="black" cx="154" cy="-104" rx="60.25" ry="18"/>
<text text-anchor="middle" x="154" y="-99.8" font-family="Times,serif" font-size="14.00">StoreService</text>
</g>
<!-- StoreService&#45;&gt;LangchainModule -->
<g id="edge2" class="edge">
<title>StoreService&#45;&gt;LangchainModule</title>
<path fill="none" stroke="black" d="M195.03,-117.47C195.03,-117.47 195.03,-140.86 195.03,-140.86"/>
<polygon fill="black" stroke="black" points="191.53,-140.86 195.03,-150.86 198.53,-140.86 191.53,-140.86"/>
</g>
</g>
</svg>
