<?xml version="1.0" encoding="UTF-8" standalone="no"?>
<!DOCTYPE svg PUBLIC "-//W3C//DTD SVG 1.1//EN"
 "http://www.w3.org/Graphics/SVG/1.1/DTD/svg11.dtd">
<!-- Generated by graphviz version 2.47.0 (20210316.0004)
 -->
<!-- Title: dependencies Pages: 1 -->
<svg width="504pt" height="211pt"
 viewBox="0.00 0.00 504.00 211.00" xmlns="http://www.w3.org/2000/svg" xmlns:xlink="http://www.w3.org/1999/xlink">
<g id="graph0" class="graph" transform="scale(1 1) rotate(0) translate(4 207)">
<title>dependencies</title>
<polygon fill="white" stroke="transparent" points="-4,4 -4,-207 500,-207 500,4 -4,4"/>
<text text-anchor="start" x="227.01" y="-42.4" font-family="Times-12" font-weight="bold" font-size="14.00">Legend</text>
<polygon fill="#ffffb3" stroke="transparent" points="14,-10 14,-30 34,-30 34,-10 14,-10"/>
<text text-anchor="start" x="37.63" y="-15.4" font-family="Times-12" font-size="14.00"> &#160;Declarations</text>
<polygon fill="#8dd3c7" stroke="transparent" points="127,-10 127,-30 147,-30 147,-10 127,-10"/>
<text text-anchor="start" x="150.73" y="-15.4" font-family="Times-12" font-size="14.00"> &#160;Module</text>
<polygon fill="#80b1d3" stroke="transparent" points="213,-10 213,-30 233,-30 233,-10 213,-10"/>
<text text-anchor="start" x="236.78" y="-15.4" font-family="Times-12" font-size="14.00"> &#160;Bootstrap</text>
<polygon fill="#fdb462" stroke="transparent" points="310,-10 310,-30 330,-30 330,-10 310,-10"/>
<text text-anchor="start" x="333.67" y="-15.4" font-family="Times-12" font-size="14.00"> &#160;Providers</text>
<polygon fill="#fb8072" stroke="transparent" points="406,-10 406,-30 426,-30 426,-10 406,-10"/>
<text text-anchor="start" x="429.73" y="-15.4" font-family="Times-12" font-size="14.00"> &#160;Exports</text>
<g id="clust1" class="cluster">
<title>cluster_AppModule</title>
<polygon fill="none" stroke="black" stroke-dasharray="1,5" points="122.5,-70 122.5,-195 373.5,-195 373.5,-70 122.5,-70"/>
</g>
<g id="clust3" class="cluster">
<title>cluster_AppModule_imports</title>
<polygon fill="none" stroke="black" points="130.5,-78 130.5,-130 365.5,-130 365.5,-78 130.5,-78"/>
</g>
<!-- ApiModule -->
<g id="node1" class="node">
<title>ApiModule</title>
<polygon fill="#8dd3c7" stroke="black" points="357.55,-122 354.55,-126 333.55,-126 330.55,-122 277.45,-122 277.45,-86 357.55,-86 357.55,-122"/>
<text text-anchor="middle" x="317.5" y="-99.8" font-family="Times,serif" font-size="14.00">ApiModule</text>
</g>
<!-- AppModule -->
<g id="node3" class="node">
<title>AppModule</title>
<polygon fill="#8dd3c7" stroke="black" points="299.16,-187 296.16,-191 275.16,-191 272.16,-187 215.84,-187 215.84,-151 299.16,-151 299.16,-187"/>
<text text-anchor="middle" x="257.5" y="-164.8" font-family="Times,serif" font-size="14.00">AppModule</text>
</g>
<!-- ApiModule&#45;&gt;AppModule -->
<g id="edge1" class="edge">
<title>ApiModule&#45;&gt;AppModule</title>
<path fill="none" stroke="black" d="M288.28,-122.11C288.28,-122.11 288.28,-140.99 288.28,-140.99"/>
<polygon fill="black" stroke="black" points="284.78,-140.99 288.28,-150.99 291.78,-140.99 284.78,-140.99"/>
</g>
<!-- IntegrationModule -->
<g id="node2" class="node">
<title>IntegrationModule</title>
<polygon fill="#8dd3c7" stroke="black" points="258.97,-122 255.97,-126 234.97,-126 231.97,-122 138.03,-122 138.03,-86 258.97,-86 258.97,-122"/>
<text text-anchor="middle" x="198.5" y="-99.8" font-family="Times,serif" font-size="14.00">IntegrationModule</text>
</g>
<!-- IntegrationModule&#45;&gt;AppModule -->
<g id="edge2" class="edge">
<title>IntegrationModule&#45;&gt;AppModule</title>
<path fill="none" stroke="black" d="M237.33,-122.11C237.33,-122.11 237.33,-140.99 237.33,-140.99"/>
<polygon fill="black" stroke="black" points="233.83,-140.99 237.33,-150.99 240.83,-140.99 233.83,-140.99"/>
</g>
</g>
</svg>
