<?xml version="1.0" encoding="UTF-8" standalone="no"?>
<!DOCTYPE svg PUBLIC "-//W3C//DTD SVG 1.1//EN"
 "http://www.w3.org/Graphics/SVG/1.1/DTD/svg11.dtd">
<!-- Generated by graphviz version 2.47.0 (20210316.0004)
 -->
<!-- Title: dependencies Pages: 1 -->
<svg width="1507pt" height="515pt"
 viewBox="0.00 0.00 1507.00 515.00" xmlns="http://www.w3.org/2000/svg" xmlns:xlink="http://www.w3.org/1999/xlink">
<g id="graph0" class="graph" transform="scale(1 1) rotate(0) translate(4 511)">
<title>dependencies</title>
<polygon fill="white" stroke="transparent" points="-4,4 -4,-511 1503,-511 1503,4 -4,4"/>
<text text-anchor="start" x="728.51" y="-42.4" font-family="Times-12" font-weight="bold" font-size="14.00">Legend</text>
<polygon fill="#ffffb3" stroke="transparent" points="515.5,-10 515.5,-30 535.5,-30 535.5,-10 515.5,-10"/>
<text text-anchor="start" x="539.13" y="-15.4" font-family="Times-12" font-size="14.00"> &#160;Declarations</text>
<polygon fill="#8dd3c7" stroke="transparent" points="628.5,-10 628.5,-30 648.5,-30 648.5,-10 628.5,-10"/>
<text text-anchor="start" x="652.23" y="-15.4" font-family="Times-12" font-size="14.00"> &#160;Module</text>
<polygon fill="#80b1d3" stroke="transparent" points="714.5,-10 714.5,-30 734.5,-30 734.5,-10 714.5,-10"/>
<text text-anchor="start" x="738.28" y="-15.4" font-family="Times-12" font-size="14.00"> &#160;Bootstrap</text>
<polygon fill="#fdb462" stroke="transparent" points="811.5,-10 811.5,-30 831.5,-30 831.5,-10 811.5,-10"/>
<text text-anchor="start" x="835.17" y="-15.4" font-family="Times-12" font-size="14.00"> &#160;Providers</text>
<polygon fill="#fb8072" stroke="transparent" points="907.5,-10 907.5,-30 927.5,-30 927.5,-10 907.5,-10"/>
<text text-anchor="start" x="931.23" y="-15.4" font-family="Times-12" font-size="14.00"> &#160;Exports</text>
<g id="clust1" class="cluster">
<title>cluster_ApiModule</title>
<polygon fill="none" stroke="black" stroke-dasharray="1,5" points="382,-222 382,-434 861,-434 861,-222 382,-222"/>
</g>
<g id="clust3" class="cluster">
<title>cluster_ApiModule_imports</title>
<polygon fill="none" stroke="black" points="390,-230 390,-358 853,-358 853,-230 390,-230"/>
</g>
<g id="clust7" class="cluster">
<title>cluster_AppModule</title>
<polygon fill="none" stroke="black" stroke-dasharray="1,5" points="1014,-374 1014,-499 1166,-499 1166,-374 1014,-374"/>
</g>
<g id="clust9" class="cluster">
<title>cluster_AppModule_imports</title>
<polygon fill="none" stroke="black" points="1022,-382 1022,-434 1158,-434 1158,-382 1022,-382"/>
</g>
<g id="clust13" class="cluster">
<title>cluster_AuthModule</title>
<polygon fill="none" stroke="black" stroke-dasharray="1,5" points="404,-146 404,-214 554,-214 554,-146 404,-146"/>
</g>
<g id="clust18" class="cluster">
<title>cluster_AuthModule_providers</title>
<polygon fill="none" stroke="black" points="412,-154 412,-206 546,-206 546,-154 412,-154"/>
</g>
<g id="clust19" class="cluster">
<title>cluster_DeckModule</title>
<polygon fill="none" stroke="black" stroke-dasharray="1,5" points="869,-222 869,-290 1021,-290 1021,-222 869,-222"/>
</g>
<g id="clust24" class="cluster">
<title>cluster_DeckModule_providers</title>
<polygon fill="none" stroke="black" points="877,-230 877,-282 1013,-282 1013,-230 877,-230"/>
</g>
<g id="clust31" class="cluster">
<title>cluster_IntegrationModule</title>
<polygon fill="none" stroke="black" stroke-dasharray="1,5" points="884,-146 884,-214 1387,-214 1387,-146 884,-146"/>
</g>
<g id="clust33" class="cluster">
<title>cluster_IntegrationModule_imports</title>
<polygon fill="none" stroke="black" points="892,-154 892,-206 1379,-206 1379,-154 892,-154"/>
</g>
<g id="clust37" class="cluster">
<title>cluster_LangchainModule</title>
<polygon fill="none" stroke="black" stroke-dasharray="1,5" points="819,-70 819,-138 1159,-138 1159,-70 819,-70"/>
</g>
<g id="clust42" class="cluster">
<title>cluster_LangchainModule_providers</title>
<polygon fill="none" stroke="black" points="827,-78 827,-130 1151,-130 1151,-78 827,-78"/>
</g>
<g id="clust43" class="cluster">
<title>cluster_MailModule</title>
<polygon fill="none" stroke="black" stroke-dasharray="1,5" points="1167,-70 1167,-138 1315,-138 1315,-70 1167,-70"/>
</g>
<g id="clust48" class="cluster">
<title>cluster_MailModule_providers</title>
<polygon fill="none" stroke="black" points="1175,-78 1175,-130 1307,-130 1307,-78 1175,-78"/>
</g>
<g id="clust49" class="cluster">
<title>cluster_NotificationModule</title>
<polygon fill="none" stroke="black" stroke-dasharray="1,5" points="8,-298 8,-366 374,-366 374,-298 8,-298"/>
</g>
<g id="clust52" class="cluster">
<title>cluster_NotificationModule_exports</title>
<polygon fill="none" stroke="black" points="214,-306 214,-358 366,-358 366,-306 214,-306"/>
</g>
<g id="clust54" class="cluster">
<title>cluster_NotificationModule_providers</title>
<polygon fill="none" stroke="black" points="16,-306 16,-358 206,-358 206,-306 16,-306"/>
</g>
<g id="clust55" class="cluster">
<title>cluster_ResendModule</title>
<polygon fill="none" stroke="black" stroke-dasharray="1,5" points="1323,-70 1323,-138 1491,-138 1491,-70 1323,-70"/>
</g>
<g id="clust60" class="cluster">
<title>cluster_ResendModule_providers</title>
<polygon fill="none" stroke="black" points="1331,-78 1331,-130 1483,-130 1483,-78 1331,-78"/>
</g>
<g id="clust61" class="cluster">
<title>cluster_StudyModule</title>
<polygon fill="none" stroke="black" stroke-dasharray="1,5" points="562,-146 562,-214 720,-214 720,-146 562,-146"/>
</g>
<g id="clust66" class="cluster">
<title>cluster_StudyModule_providers</title>
<polygon fill="none" stroke="black" points="570,-154 570,-206 712,-206 712,-154 570,-154"/>
</g>
<g id="clust67" class="cluster">
<title>cluster_UserModule</title>
<polygon fill="none" stroke="black" stroke-dasharray="1,5" points="728,-146 728,-214 876,-214 876,-146 728,-146"/>
</g>
<g id="clust72" class="cluster">
<title>cluster_UserModule_providers</title>
<polygon fill="none" stroke="black" points="736,-154 736,-206 868,-206 868,-154 736,-154"/>
</g>
<!-- AuthModule -->
<g id="node1" class="node">
<title>AuthModule</title>
<polygon fill="#8dd3c7" stroke="black" points="630.55,-274 627.55,-278 606.55,-278 603.55,-274 543.45,-274 543.45,-238 630.55,-238 630.55,-274"/>
<text text-anchor="middle" x="587" y="-251.8" font-family="Times,serif" font-size="14.00">AuthModule</text>
</g>
<!-- ApiModule -->
<g id="node6" class="node">
<title>ApiModule</title>
<polygon fill="#8dd3c7" stroke="black" points="745.05,-426 742.05,-430 721.05,-430 718.05,-426 664.95,-426 664.95,-390 745.05,-390 745.05,-426"/>
<text text-anchor="middle" x="705" y="-403.8" font-family="Times,serif" font-size="14.00">ApiModule</text>
</g>
<!-- AuthModule&#45;&gt;ApiModule -->
<g id="edge1" class="edge">
<title>AuthModule&#45;&gt;ApiModule</title>
<path fill="none" stroke="black" d="M587,-274.2C587,-313.33 587,-402 587,-402 587,-402 654.72,-402 654.72,-402"/>
<polygon fill="black" stroke="black" points="654.72,-405.5 664.72,-402 654.72,-398.5 654.72,-405.5"/>
</g>
<!-- DeckModule -->
<g id="node2" class="node">
<title>DeckModule</title>
<polygon fill="#8dd3c7" stroke="black" points="823.59,-350 820.59,-354 799.59,-354 796.59,-350 734.41,-350 734.41,-314 823.59,-314 823.59,-350"/>
<text text-anchor="middle" x="779" y="-327.8" font-family="Times,serif" font-size="14.00">DeckModule</text>
</g>
<!-- DeckModule&#45;&gt;ApiModule -->
<g id="edge2" class="edge">
<title>DeckModule&#45;&gt;ApiModule</title>
<path fill="none" stroke="black" d="M739.87,-350.01C739.87,-350.01 739.87,-379.85 739.87,-379.85"/>
<polygon fill="black" stroke="black" points="736.37,-379.85 739.87,-389.85 743.37,-379.85 736.37,-379.85"/>
</g>
<!-- NotificationModule -->
<g id="node3" class="node">
<title>NotificationModule</title>
<polygon fill="#8dd3c7" stroke="black" points="525.7,-274 522.7,-278 501.7,-278 498.7,-274 398.3,-274 398.3,-238 525.7,-238 525.7,-274"/>
<text text-anchor="middle" x="462" y="-251.8" font-family="Times,serif" font-size="14.00">NotificationModule</text>
</g>
<!-- NotificationModule&#45;&gt;DeckModule -->
<g id="edge9" class="edge">
<title>NotificationModule&#45;&gt;DeckModule</title>
<path fill="none" stroke="black" d="M493.8,-274.03C493.8,-294.77 493.8,-326 493.8,-326 493.8,-326 724.44,-326 724.44,-326"/>
<polygon fill="black" stroke="black" points="724.44,-329.5 734.44,-326 724.44,-322.5 724.44,-329.5"/>
</g>
<!-- NotificationModule&#45;&gt;ApiModule -->
<g id="edge3" class="edge">
<title>NotificationModule&#45;&gt;ApiModule</title>
<path fill="none" stroke="black" d="M462,-274.12C462,-315.63 462,-414 462,-414 462,-414 654.87,-414 654.87,-414"/>
<polygon fill="black" stroke="black" points="654.87,-417.5 664.87,-414 654.87,-410.5 654.87,-417.5"/>
</g>
<!-- NotificationGateway  -->
<g id="node18" class="node">
<title>NotificationGateway </title>
<polygon fill="#fb8072" stroke="black" points="358.4,-350 221.6,-350 221.6,-314 358.4,-314 358.4,-350"/>
<text text-anchor="middle" x="290" y="-327.8" font-family="Times,serif" font-size="14.00">NotificationGateway </text>
</g>
<!-- NotificationModule&#45;&gt;NotificationGateway  -->
<g id="edge18" class="edge">
<title>NotificationModule&#45;&gt;NotificationGateway </title>
<path fill="none" stroke="black" stroke-dasharray="5,2" d="M430.2,-274.2C430.2,-298.36 430.2,-338 430.2,-338 430.2,-338 368.46,-338 368.46,-338"/>
<polygon fill="black" stroke="black" points="368.46,-334.5 358.46,-338 368.46,-341.5 368.46,-334.5"/>
</g>
<!-- StudyModule -->
<g id="node4" class="node">
<title>StudyModule</title>
<polygon fill="#8dd3c7" stroke="black" points="741.22,-274 738.22,-278 717.22,-278 714.22,-274 648.78,-274 648.78,-238 741.22,-238 741.22,-274"/>
<text text-anchor="middle" x="695" y="-251.8" font-family="Times,serif" font-size="14.00">StudyModule</text>
</g>
<!-- StudyModule&#45;&gt;ApiModule -->
<g id="edge4" class="edge">
<title>StudyModule&#45;&gt;ApiModule</title>
<path fill="none" stroke="black" d="M699.59,-274.03C699.59,-274.03 699.59,-379.99 699.59,-379.99"/>
<polygon fill="black" stroke="black" points="696.09,-379.99 699.59,-389.99 703.09,-379.99 696.09,-379.99"/>
</g>
<!-- UserModule -->
<g id="node5" class="node">
<title>UserModule</title>
<polygon fill="#8dd3c7" stroke="black" points="844.98,-274 841.98,-278 820.98,-278 817.98,-274 759.02,-274 759.02,-238 844.98,-238 844.98,-274"/>
<text text-anchor="middle" x="802" y="-251.8" font-family="Times,serif" font-size="14.00">UserModule</text>
</g>
<!-- UserModule&#45;&gt;ApiModule -->
<g id="edge5" class="edge">
<title>UserModule&#45;&gt;ApiModule</title>
<path fill="none" stroke="black" d="M834.27,-274.12C834.27,-315.63 834.27,-414 834.27,-414 834.27,-414 755.19,-414 755.19,-414"/>
<polygon fill="black" stroke="black" points="755.19,-410.5 745.19,-414 755.19,-417.5 755.19,-410.5"/>
</g>
<!-- AppModule -->
<g id="node8" class="node">
<title>AppModule</title>
<polygon fill="#8dd3c7" stroke="black" points="1118.66,-491 1115.66,-495 1094.66,-495 1091.66,-491 1035.34,-491 1035.34,-455 1118.66,-455 1118.66,-491"/>
<text text-anchor="middle" x="1077" y="-468.8" font-family="Times,serif" font-size="14.00">AppModule</text>
</g>
<!-- ApiModule&#45;&gt;AppModule -->
<g id="edge6" class="edge">
<title>ApiModule&#45;&gt;AppModule</title>
<path fill="none" stroke="black" d="M705,-426.11C705,-445.34 705,-473 705,-473 705,-473 1025.05,-473 1025.05,-473"/>
<polygon fill="black" stroke="black" points="1025.05,-476.5 1035.05,-473 1025.05,-469.5 1025.05,-476.5"/>
</g>
<!-- IntegrationModule -->
<g id="node7" class="node">
<title>IntegrationModule</title>
<polygon fill="#8dd3c7" stroke="black" points="1150.47,-426 1147.47,-430 1126.47,-430 1123.47,-426 1029.53,-426 1029.53,-390 1150.47,-390 1150.47,-426"/>
<text text-anchor="middle" x="1090" y="-403.8" font-family="Times,serif" font-size="14.00">IntegrationModule</text>
</g>
<!-- IntegrationModule&#45;&gt;AppModule -->
<g id="edge7" class="edge">
<title>IntegrationModule&#45;&gt;AppModule</title>
<path fill="none" stroke="black" d="M1077,-426.11C1077,-426.11 1077,-444.99 1077,-444.99"/>
<polygon fill="black" stroke="black" points="1073.5,-444.99 1077,-454.99 1080.5,-444.99 1073.5,-444.99"/>
</g>
<!-- AuthService -->
<g id="node9" class="node">
<title>AuthService</title>
<ellipse fill="#fdb462" stroke="black" cx="479" cy="-180" rx="59.11" ry="18"/>
<text text-anchor="middle" x="479" y="-175.8" font-family="Times,serif" font-size="14.00">AuthService</text>
</g>
<!-- AuthService&#45;&gt;AuthModule -->
<g id="edge8" class="edge">
<title>AuthService&#45;&gt;AuthModule</title>
<path fill="none" stroke="black" d="M531.95,-188.13C531.95,-207.74 531.95,-256 531.95,-256 531.95,-256 533.36,-256 533.36,-256"/>
<polygon fill="black" stroke="black" points="533.36,-259.5 543.36,-256 533.36,-252.5 533.36,-259.5"/>
</g>
<!-- DeckService -->
<g id="node10" class="node">
<title>DeckService</title>
<ellipse fill="#fdb462" stroke="black" cx="945" cy="-256" rx="60.23" ry="18"/>
<text text-anchor="middle" x="945" y="-251.8" font-family="Times,serif" font-size="14.00">DeckService</text>
</g>
<!-- DeckService&#45;&gt;DeckModule -->
<g id="edge10" class="edge">
<title>DeckService&#45;&gt;DeckModule</title>
<path fill="none" stroke="black" d="M945,-274.01C945,-296.49 945,-332 945,-332 945,-332 833.92,-332 833.92,-332"/>
<polygon fill="black" stroke="black" points="833.92,-328.5 823.92,-332 833.92,-335.5 833.92,-328.5"/>
</g>
<!-- ImageKitModule -->
<g id="node11" class="node">
<title>ImageKitModule</title>
<polygon fill="#8dd3c7" stroke="black" points="1012.42,-198 1009.42,-202 988.42,-202 985.42,-198 899.58,-198 899.58,-162 1012.42,-162 1012.42,-198"/>
<text text-anchor="middle" x="956" y="-175.8" font-family="Times,serif" font-size="14.00">ImageKitModule</text>
</g>
<!-- ImageKitModule&#45;&gt;UserModule -->
<g id="edge22" class="edge">
<title>ImageKitModule&#45;&gt;UserModule</title>
<path fill="none" stroke="black" d="M899.33,-180C884.43,-180 872.43,-180 872.43,-180 872.43,-180 872.43,-256 872.43,-256 872.43,-256 855,-256 855,-256"/>
<polygon fill="black" stroke="black" points="855,-252.5 845,-256 855,-259.5 855,-252.5"/>
</g>
<!-- ImageKitModule&#45;&gt;IntegrationModule -->
<g id="edge11" class="edge">
<title>ImageKitModule&#45;&gt;IntegrationModule</title>
<path fill="none" stroke="black" d="M1012.38,-180C1017.53,-180 1020.86,-180 1020.86,-180 1020.86,-180 1020.86,-402 1020.86,-402 1020.86,-402 1021.71,-402 1021.71,-402"/>
<polygon fill="black" stroke="black" points="1019.34,-405.5 1029.34,-402 1019.34,-398.5 1019.34,-405.5"/>
</g>
<!-- LangchainModule -->
<g id="node12" class="node">
<title>LangchainModule</title>
<polygon fill="#8dd3c7" stroke="black" points="1149.14,-198 1146.14,-202 1125.14,-202 1122.14,-198 1030.86,-198 1030.86,-162 1149.14,-162 1149.14,-198"/>
<text text-anchor="middle" x="1090" y="-175.8" font-family="Times,serif" font-size="14.00">LangchainModule</text>
</g>
<!-- LangchainModule&#45;&gt;IntegrationModule -->
<g id="edge12" class="edge">
<title>LangchainModule&#45;&gt;IntegrationModule</title>
<path fill="none" stroke="black" d="M1090,-198.27C1090,-198.27 1090,-379.96 1090,-379.96"/>
<polygon fill="black" stroke="black" points="1086.5,-379.96 1090,-389.96 1093.5,-379.96 1086.5,-379.96"/>
</g>
<!-- MailModule -->
<g id="node13" class="node">
<title>MailModule</title>
<polygon fill="#8dd3c7" stroke="black" points="1252.99,-198 1249.99,-202 1228.99,-202 1225.99,-198 1167.01,-198 1167.01,-162 1252.99,-162 1252.99,-198"/>
<text text-anchor="middle" x="1210" y="-175.8" font-family="Times,serif" font-size="14.00">MailModule</text>
</g>
<!-- MailModule&#45;&gt;IntegrationModule -->
<g id="edge13" class="edge">
<title>MailModule&#45;&gt;IntegrationModule</title>
<path fill="none" stroke="black" d="M1210,-198.17C1210,-251.19 1210,-402 1210,-402 1210,-402 1160.7,-402 1160.7,-402"/>
<polygon fill="black" stroke="black" points="1160.7,-398.5 1150.7,-402 1160.7,-405.5 1160.7,-398.5"/>
</g>
<!-- ResendModule -->
<g id="node14" class="node">
<title>ResendModule</title>
<polygon fill="#8dd3c7" stroke="black" points="1371.26,-198 1368.26,-202 1347.26,-202 1344.26,-198 1270.74,-198 1270.74,-162 1371.26,-162 1371.26,-198"/>
<text text-anchor="middle" x="1321" y="-175.8" font-family="Times,serif" font-size="14.00">ResendModule</text>
</g>
<!-- ResendModule&#45;&gt;IntegrationModule -->
<g id="edge14" class="edge">
<title>ResendModule&#45;&gt;IntegrationModule</title>
<path fill="none" stroke="black" d="M1321,-198.36C1321,-253.52 1321,-414 1321,-414 1321,-414 1160.69,-414 1160.69,-414"/>
<polygon fill="black" stroke="black" points="1160.69,-410.5 1150.69,-414 1160.69,-417.5 1160.69,-410.5"/>
</g>
<!-- EmbeddingService -->
<g id="node15" class="node">
<title>EmbeddingService</title>
<ellipse fill="#fdb462" stroke="black" cx="1058" cy="-104" rx="84.53" ry="18"/>
<text text-anchor="middle" x="1058" y="-99.8" font-family="Times,serif" font-size="14.00">EmbeddingService</text>
</g>
<!-- EmbeddingService&#45;&gt;LangchainModule -->
<g id="edge15" class="edge">
<title>EmbeddingService&#45;&gt;LangchainModule</title>
<path fill="none" stroke="black" d="M1105.24,-119.02C1105.24,-119.02 1105.24,-151.8 1105.24,-151.8"/>
<polygon fill="black" stroke="black" points="1101.74,-151.8 1105.24,-161.8 1108.74,-151.8 1101.74,-151.8"/>
</g>
<!-- StoreService -->
<g id="node16" class="node">
<title>StoreService</title>
<ellipse fill="#fdb462" stroke="black" cx="895" cy="-104" rx="60.25" ry="18"/>
<text text-anchor="middle" x="895" y="-99.8" font-family="Times,serif" font-size="14.00">StoreService</text>
</g>
<!-- StoreService&#45;&gt;LangchainModule -->
<g id="edge16" class="edge">
<title>StoreService&#45;&gt;LangchainModule</title>
<path fill="none" stroke="black" d="M927.58,-119.46C927.58,-129.98 927.58,-142 927.58,-142 927.58,-142 1067.96,-142 1067.96,-142 1067.96,-142 1067.96,-151.89 1067.96,-151.89"/>
<polygon fill="black" stroke="black" points="1064.46,-151.89 1067.96,-161.89 1071.46,-151.89 1064.46,-151.89"/>
</g>
<!-- MailService -->
<g id="node17" class="node">
<title>MailService</title>
<ellipse fill="#fdb462" stroke="black" cx="1241" cy="-104" rx="58.46" ry="18"/>
<text text-anchor="middle" x="1241" y="-99.8" font-family="Times,serif" font-size="14.00">MailService</text>
</g>
<!-- MailService&#45;&gt;MailModule -->
<g id="edge17" class="edge">
<title>MailService&#45;&gt;MailModule</title>
<path fill="none" stroke="black" d="M1217.88,-120.87C1217.88,-120.87 1217.88,-151.85 1217.88,-151.85"/>
<polygon fill="black" stroke="black" points="1214.38,-151.85 1217.88,-161.85 1221.38,-151.85 1214.38,-151.85"/>
</g>
<!-- NotificationService -->
<g id="node19" class="node">
<title>NotificationService</title>
<ellipse fill="#fdb462" stroke="black" cx="111" cy="-332" rx="86.81" ry="18"/>
<text text-anchor="middle" x="111" y="-327.8" font-family="Times,serif" font-size="14.00">NotificationService</text>
</g>
<!-- NotificationService&#45;&gt;NotificationModule -->
<g id="edge19" class="edge">
<title>NotificationService&#45;&gt;NotificationModule</title>
<path fill="none" stroke="black" d="M111,-313.99C111,-291.51 111,-256 111,-256 111,-256 388.03,-256 388.03,-256"/>
<polygon fill="black" stroke="black" points="388.03,-259.5 398.03,-256 388.03,-252.5 388.03,-259.5"/>
</g>
<!-- ResendService -->
<g id="node20" class="node">
<title>ResendService</title>
<ellipse fill="#fdb462" stroke="black" cx="1407" cy="-104" rx="68.34" ry="18"/>
<text text-anchor="middle" x="1407" y="-99.8" font-family="Times,serif" font-size="14.00">ResendService</text>
</g>
<!-- ResendService&#45;&gt;ResendModule -->
<g id="edge20" class="edge">
<title>ResendService&#45;&gt;ResendModule</title>
<path fill="none" stroke="black" d="M1354.98,-115.88C1354.98,-115.88 1354.98,-151.99 1354.98,-151.99"/>
<polygon fill="black" stroke="black" points="1351.48,-151.99 1354.98,-161.99 1358.48,-151.99 1351.48,-151.99"/>
</g>
<!-- StudyService -->
<g id="node21" class="node">
<title>StudyService</title>
<ellipse fill="#fdb462" stroke="black" cx="641" cy="-180" rx="62.56" ry="18"/>
<text text-anchor="middle" x="641" y="-175.8" font-family="Times,serif" font-size="14.00">StudyService</text>
</g>
<!-- StudyService&#45;&gt;StudyModule -->
<g id="edge21" class="edge">
<title>StudyService&#45;&gt;StudyModule</title>
<path fill="none" stroke="black" d="M676.21,-195.02C676.21,-195.02 676.21,-227.8 676.21,-227.8"/>
<polygon fill="black" stroke="black" points="672.71,-227.8 676.21,-237.8 679.71,-227.8 672.71,-227.8"/>
</g>
<!-- UserService -->
<g id="node22" class="node">
<title>UserService</title>
<ellipse fill="#fdb462" stroke="black" cx="802" cy="-180" rx="58.44" ry="18"/>
<text text-anchor="middle" x="802" y="-175.8" font-family="Times,serif" font-size="14.00">UserService</text>
</g>
<!-- UserService&#45;&gt;UserModule -->
<g id="edge23" class="edge">
<title>UserService&#45;&gt;UserModule</title>
<path fill="none" stroke="black" d="M802,-198.01C802,-198.01 802,-227.85 802,-227.85"/>
<polygon fill="black" stroke="black" points="798.5,-227.85 802,-237.85 805.5,-227.85 798.5,-227.85"/>
</g>
</g>
</svg>
